<?xml version="1.0" encoding="UTF-8"?>
<svg width="128px" height="128px" viewBox="0 0 128 128" version="1.1" xmlns="http://www.w3.org/2000/svg" xmlns:xlink="http://www.w3.org/1999/xlink">
    <title>White</title>
    <g id="White" stroke="none" stroke-width="1" fill="none" fill-rule="evenodd">
        <rect fill="#FFFFFF" x="0" y="0" width="128" height="128"></rect>
        <g id="Group-3" transform="translate(30.000000, 26.000000)">
            <g id="Group-2" opacity="0.200907389" transform="translate(0.500000, 0.500000)">
                <g id="Group" transform="translate(26.116007, 65.240906) rotate(-90.000000) translate(-26.116007, -65.240906) translate(20.116007, 60.240906)"></g>
            </g>
            <path d="M0.5,39 L8,35.5 L8,13 C8,6.372583 13.372583,1 20,1 L38.3635516,1 C44.8472754,1 50.1584704,6.15028717 50.3578752,12.6309439 L51,33.5 L51,33.5 L47,37.5 L47,50 L47.437355,53.4259476 C48.6962185,63.2870448 41.7227302,72.3015541 31.8616329,73.5604176 C31.1658473,73.6492413 30.4654645,73.6973185 29.7640679,73.7044034 L15.6515074,73.8469545 C7.36765877,73.9306297 0.584440408,67.2830757 0.500765169,58.9992271 C0.50025506,58.9487262 0.5,58.8982231 0.5,58.8477196 L0.5,39 L0.5,39 Z" id="Rectangle" fill="#D32F25"></path>
            <path d="M16.5,72 L34,72 C39.5228475,72 44,67.5228475 44,62 L44,37.5 L44,37.5" id="highlight" stroke="#FF6D6A" stroke-width="2" stroke-linecap="round" stroke-linejoin="round"></path>
            <path d="M27,0.5 C29.3142408,0.5 31.6284816,0.572866809 33.9427224,0.718600427 C41.8452947,1.21624713 48,7.77072113 48,15.688947 L48,30 C48,33.8659932 44.8659932,37 41,37 L32.5,37 L32.5,37" id="highlight" stroke="#FF6D6A" stroke-width="2" stroke-linecap="round" stroke-linejoin="round"></path>
            <path d="M8.5,33.5 L8.5,12.7017765 C8.50000229,7.5544644 12.0694856,3.09541262 17.0919451,1.96859329 C21.4558214,0.989531097 25.7585064,0.5 30,0.5 C32.3142408,0.5 34.6284816,0.572866809 36.9427224,0.718600427 C44.8452947,1.21624713 51,7.77072113 51,15.688947 L51,30.1443144 C51,33.9534865 47.9541474,37.0634553 44.1458017,37.1427958 L33.1249729,37.3723964 C29.8119833,37.441417 27.0703223,34.8116606 27.0013017,31.4986709 C27.0004339,31.457019 27,31.4153591 27,31.3736981 L27,17.5 L27,17.5" id="Path" stroke="#222222" stroke-width="4" stroke-linecap="round" stroke-linejoin="round"></path>
            <ellipse id="Oval" fill="#222222" cx="37.5" cy="13" rx="2.5" ry="3"></ellipse>
            <circle id="Oval" fill-opacity="0.8" fill="#FFFFFF" cx="38" cy="12" r="1"></circle>
            <path d="M34.5,59 L24.5,59 C20.6340068,59 17.5,55.8659932 17.5,52 L17.5,42.2641612 C17.5,40.2288987 16.4682534,38.3323992 14.7595077,37.2267403 L12.9042269,36.0262645 C10.5535926,34.5052658 7.50777831,34.5942959 5.25,36.25 L3.13454535,37.8013334 C2.10704493,38.5548337 1.5,39.7527792 1.5,41.0269534 L1.5,59 C1.5,66.1797017 7.32029825,72 14.5,72 L37,72 C42.5228475,72 47,67.5228475 47,62 L47,37.5 L47,37.5" id="Path-2" stroke="#222222" stroke-width="4" stroke-linecap="round" stroke-linejoin="round"></path>
            <path d="M40.9823633,20.7639753 C40.9823633,20.7639753 40.9823633,20.7639753 40.9823633,20.7639753 C43.4604799,20.7639753 49.4079599,21.1963501 52.8773233,19.8992255 C56.3466866,18.602101 60.8072966,15.575477 63.7810366,15.575477 C66.7547766,15.575477 60.8072966,20.7639753 60.8072966,20.7639753 C60.8072966,20.7639753 66.9572624,25.046737 65.7635299,25.5200986 C64.5697974,25.9934602 61.8454398,23.2867361 58.3291799,22.9258495 C54.8129201,22.5649629 52.3816999,22.9258495 48.9123366,23.7905992 C46.9495788,24.2798228 44.2045895,24.0657327 40.6773687,23.1483289 L40.6773532,23.1483883 C40.0296898,22.9799359 39.6412125,22.3183433 39.8096649,21.6706799 C39.9485475,21.1367061 40.4306239,20.7639753 40.9823633,20.7639753 Z" id="Path-3" stroke="#222222" fill="#222222" transform="translate(52.307849, 20.575477) rotate(-6.000000) translate(-52.307849, -20.575477) "></path>
            <g id="Group" transform="translate(3.000000, 47.500000)" stroke-linecap="round" stroke-linejoin="round">
                <path d="M0,0 L4.33589941,6.50384912 C4.94860433,7.42290649 6.19034302,7.67125423 7.10940039,7.05854931 C7.32910497,6.9120796 7.51763087,6.72355369 7.66410059,6.50384912 L12,0 L12,0" id="Path-4" stroke="#222222" stroke-width="5"></path>
                <path d="M0,0 L4.33589941,6.50384912 C4.94860433,7.42290649 6.19034302,7.67125423 7.10940039,7.05854931 C7.32910497,6.9120796 7.51763087,6.72355369 7.66410059,6.50384912 L12,0 L12,0" id="Path-4" stroke="#FFFFFF" stroke-width="2"></path>
            </g>
            <g id="Group" transform="translate(17.616007, 26.240906) rotate(-178.000000) translate(-17.616007, -26.240906) translate(10.116007, 21.240906)" stroke-linecap="round" stroke-linejoin="round">
                <path d="M0.107198542,0.254465496 L5.52849411,7.22470265 C6.20663418,8.09659703 7.46318538,8.25366594 8.33507977,7.57552586 C8.46612855,7.47359903 8.58397615,7.35575143 8.68590298,7.22470265 L14.1071985,0.254465496 L14.1071985,0.254465496" id="Path-4" stroke="#222222" stroke-width="5"></path>
                <path d="M0.107198542,0.254465496 L5.52849411,7.22470265 C6.20663418,8.09659703 7.46318538,8.25366594 8.33507977,7.57552586 C8.46612855,7.47359903 8.58397615,7.35575143 8.68590298,7.22470265 L14.1071985,0.254465496 L14.1071985,0.254465496" id="Path-4" stroke="#FFFFFF" stroke-width="2"></path>
            </g>
            <path d="M21,61 L24.7934363,67.2074413 C25.3694141,68.1499504 26.6003909,68.4470827 27.5429,67.8711049 C27.8136318,67.7056577 28.0411165,67.4781731 28.2065637,67.2074413 L32,61 L32,61" id="Path-4" stroke="#222222" stroke-width="5" stroke-linecap="round" stroke-linejoin="round" transform="translate(26.500000, 65.500000) rotate(-90.000000) translate(-26.500000, -65.500000) "></path>
            <path d="M21,61 L24.7934363,67.2074413 C25.3694141,68.1499504 26.6003909,68.4470827 27.5429,67.8711049 C27.8136318,67.7056577 28.0411165,67.4781731 28.2065637,67.2074413 L32,61 L32,61" id="Path-4" stroke="#FFFFFF" stroke-width="2" stroke-linecap="round" stroke-linejoin="round" transform="translate(26.500000, 65.500000) rotate(-90.000000) translate(-26.500000, -65.500000) "></path>
        </g>
    </g>
</svg>